HIERARCHY
ROOT root
{
	OFFSET 0.000000 0.000000 0.000000
	CHANNELS 6 Xposition Yposition Zposition Zrotation Yrotation Xrotation
	JOINT lhip
	{
		OFFSET 0.058581 -0.082280 -0.017664
		CHANNELS 3 Zrotation Yrotation Xrotation
		JOINT lknee
		{
			OFFSET 0.043451 -0.386469 0.008037
			CHANNELS 3 Zrotation Yrotation Xrotation
			JOINT lankle
			{
				OFFSET -0.014790 -0.426874 -0.037428
				CHANNELS 3 Zrotation Yrotation Xrotation
				JOINT ltoe
				{
					OFFSET 0.041054 -0.060286 0.122042
					CHANNELS 3 Zrotation Yrotation Xrotation
					End Site
					{
						OFFSET 0.000000 0.000000 0.000000
					}
				}
			}
		}
	}
	JOINT rhip
	{
		OFFSET -0.060310 -0.090513 -0.013543
		CHANNELS 3 Zrotation Yrotation Xrotation
		JOINT rknee
		{
			OFFSET -0.043257 -0.383688 -0.004843
			CHANNELS 3 Zrotation Yrotation Xrotation
			JOINT rankle
			{
				OFFSET 0.019056 -0.420046 -0.034562
				CHANNELS 3 Zrotation Yrotation Xrotation
				JOINT rtoe
				{
					OFFSET -0.034840 -0.062106 0.130323
					CHANNELS 3 Zrotation Yrotation Xrotation
					End Site
					{
						OFFSET 0.000000 0.000000 0.000000
					}
				}
			}
		}
	}
	JOINT lowerback
	{
		OFFSET 0.004439 0.124404 -0.038385
		CHANNELS 3 Zrotation Yrotation Xrotation
		JOINT upperback
		{
			OFFSET 0.004488 0.137956 0.026820
			CHANNELS 3 Zrotation Yrotation Xrotation
			JOINT chest
			{
				OFFSET -0.002265 0.056032 0.002855
				CHANNELS 3 Zrotation Yrotation Xrotation
				JOINT lowerneck
				{
					OFFSET -0.013390 0.211636 -0.033468
					CHANNELS 3 Zrotation Yrotation Xrotation
					JOINT upperneck
					{
						OFFSET 0.010113 0.088937 0.050410
						CHANNELS 3 Zrotation Yrotation Xrotation
						End Site
						{
							OFFSET 0.000000 0.000000 0.000000
						}
					}
				}
				JOINT lclavicle
				{
					OFFSET 0.071702 0.114000 -0.018898
					CHANNELS 3 Zrotation Yrotation Xrotation
					JOINT lshoulder
					{
						OFFSET 0.122921 0.045205 -0.019046
						CHANNELS 3 Zrotation Yrotation Xrotation
						JOINT lelbow
						{
							OFFSET 0.255332 -0.015649 -0.022946
							CHANNELS 3 Zrotation Yrotation Xrotation
							JOINT lwrist
							{
								OFFSET 0.265709 0.012698 -0.007375
								CHANNELS 3 Zrotation Yrotation Xrotation
								End Site
								{
									OFFSET 0.000000 0.000000 0.000000
								}
							}
						}
					}
				}
				JOINT rclavicle
				{
					OFFSET -0.082954 0.112472 -0.023707
					CHANNELS 3 Zrotation Yrotation Xrotation
					JOINT rshoulder
					{
						OFFSET -0.113228 0.046853 -0.008472
						CHANNELS 3 Zrotation Yrotation Xrotation
						JOINT relbow
						{
							OFFSET -0.260127 -0.014369 -0.031269
							CHANNELS 3 Zrotation Yrotation Xrotation
							JOINT rwrist
							{
								OFFSET -0.269108 0.006794 -0.006027
								CHANNELS 3 Zrotation Yrotation Xrotation
								End Site
								{
									OFFSET 0.000000 0.000000 0.000000
								}
							}
						}
					}
				}
			}
		}
	}
}
MOTION
Frames: 17
Frame Time: 0.033333
0.684354 0.589689 0.986275 20.340940 -1.960808 88.749521 8.449094 2.488227 1.286806 -3.080122 -5.430727 2.635082 -0.101498 7.873541 -6.564097 0.000000 -0.000000 0.000000 -2.964698 -4.544843 3.375550 0.656476 4.195168 3.695319 -1.707501 -9.508214 -11.779025 0.000000 -0.000000 0.000000 -2.280110 1.437863 3.550773 0.520170 -2.790589 5.662997 -1.928136 -2.541307 1.160696 2.720155 -10.675030 -3.744527 3.355763 -14.547313 11.515688 -30.441984 8.288569 5.703750 -47.575269 0.871501 4.337230 4.255196 -22.726267 17.468105 -6.405620 -5.460982 4.228645 29.576083 -3.283770 3.108286 43.971092 -1.798164 8.686990 -8.656267 28.609224 11.149067 9.163345 5.163271 9.376088 
0.682797 0.588675 0.986075 20.030213 -1.821641 88.802699 8.798131 2.572274 1.275361 -3.326284 -5.407088 2.802213 0.081875 7.796979 -6.335060 0.000000 -0.000000 0.000000 -2.968313 -4.583524 3.561177 1.074202 4.213907 3.223937 -1.662625 -9.192210 -11.785288 0.000000 -0.000000 0.000000 -2.413580 1.586691 3.656384 0.574662 -2.687918 5.669376 -1.991360 -2.578931 1.159245 3.019879 -13.391187 -3.193829 3.917533 -17.759750 12.246127 -30.140048 9.010274 6.084099 -48.080669 0.976973 4.220779 4.318249 -22.621197 17.391467 -6.096903 -5.008491 3.531723 29.633192 -3.675671 2.638885 44.228894 -2.436494 8.675642 -8.621840 29.205940 11.335445 8.866190 4.920191 8.773146 
0.683126 0.587658 0.985810 19.832303 -1.872677 88.830347 8.622455 2.741206 1.351854 -3.135829 -5.433573 2.741345 0.083243 8.312857 -6.640245 0.000000 -0.000000 0.000000 -2.971321 -4.357855 3.625663 0.954798 4.344323 3.174488 -1.606818 -9.375980 -11.832630 0.000000 -0.000000 0.000000 -2.637955 1.581354 3.588610 0.643940 -2.647270 5.687761 -2.046895 -2.662905 1.294189 3.034910 -16.268797 -2.414422 4.206961 -20.789592 12.720903 -30.055962 9.607806 6.399888 -48.298981 1.266611 4.111909 3.974258 -22.829283 17.315871 -5.661761 -4.691447 3.193963 29.480443 -3.792546 2.712183 44.671491 -2.845378 8.717939 -8.562177 29.623315 11.488891 8.501119 5.262049 8.539016 
0.682623 0.586395 0.985500 19.578113 -1.668616 89.126715 9.027358 2.715124 0.901321 -3.474026 -5.509361 3.267051 0.339993 8.177200 -6.453962 0.000000 -0.000000 0.000000 -2.873531 -4.419513 3.317844 1.279855 4.355749 3.243857 -1.698960 -9.077732 -11.832459 0.000000 -0.000000 0.000000 -2.895842 1.644157 3.359755 0.953582 -2.764357 5.566927 -2.053202 -2.689710 1.398463 2.723347 -19.570618 -1.296069 4.719182 -24.594703 13.121069 -29.176331 10.297342 7.058213 -49.028339 1.472489 4.579586 2.919408 -23.094939 18.687138 -5.245113 -4.511190 2.123704 29.177415 -4.080242 2.963505 45.383615 -3.230760 8.760952 -8.130160 30.371942 13.146818 9.162033 4.759889 8.661843 
0.681243 0.585222 0.985833 19.428402 -1.125231 89.288164 9.731884 2.765521 0.624734 -3.548645 -5.522505 3.576702 0.053309 8.443100 -6.858872 0.000000 -0.000000 0.000000 -2.518051 -4.630635 2.907415 1.996504 4.227411 3.740484 -1.564414 -8.758706 -12.020315 0.000000 -0.000000 0.000000 -2.794077 1.638660 3.229840 1.250497 -2.844121 5.537184 -1.925814 -2.768223 1.337081 2.758650 -21.020625 -0.702847 4.463407 -26.248354 13.429765 -28.608847 10.717961 7.638307 -49.577334 1.619942 4.735139 2.291397 -23.348772 19.734644 -4.933432 -4.648027 2.200619 28.817063 -4.034810 3.242683 45.869952 -3.274857 8.896814 -7.315205 30.231456 14.286271 8.480486 5.072191 8.380242 
0.681919 0.584687 0.985756 19.170773 -1.286680 89.188771 9.367534 2.637317 0.744909 -3.320962 -5.280546 3.772297 0.194049 8.473786 -6.864190 0.000000 -0.000000 0.000000 -2.801990 -4.568223 3.160334 2.086658 4.385119 3.493828 -1.677971 -8.671499 -11.996607 0.000000 -0.000000 0.000000 -3.192447 1.721836 3.424121 1.400768 -3.116535 5.589828 -2.028005 -2.837210 1.478825 2.776518 -22.353870 -0.400456 4.792964 -28.250284 13.471021 -27.494787 11.137167 8.161630 -50.331352 1.942683 5.132427 1.199943 -23.711608 21.993190 -5.085970 -4.790690 2.312124 28.884216 -3.859633 3.324400 46.737700 -3.133714 9.263407 -7.762217 29.735915 14.542720 8.194949 4.867971 9.826142 
0.682713 0.584103 0.985988 19.187630 -1.439270 88.829686 9.061196 2.729167 1.010616 -3.119930 -5.647980 3.991743 0.153712 8.754892 -7.080234 0.000000 -0.000000 0.000000 -2.501539 -4.360499 3.135600 1.263161 4.661777 4.272992 -1.566301 -9.258800 -12.474234 0.000000 -0.000000 0.000000 -3.583074 1.586382 3.930829 1.531990 -3.224857 5.844570 -1.699404 -3.304848 1.473624 2.717534 -23.059147 -0.416872 4.659203 -28.537982 13.179943 -27.746111 11.338051 8.238349 -49.891583 2.985339 5.489998 -0.153756 -24.250447 23.749149 -4.475212 -5.168975 2.647719 28.353755 -3.578664 3.245029 46.797601 -3.251133 9.741569 -5.830676 29.992299 16.619937 7.439862 4.382739 10.474346 
0.683624 0.584824 0.986347 19.049871 -1.308521 88.820228 9.306630 2.821114 0.708541 -3.616885 -5.838264 4.655357 0.795820 8.835233 -7.360598 0.000000 -0.000000 0.000000 -1.992429 -4.216466 2.495114 0.613898 4.942135 5.392703 -1.627150 -9.548258 -12.557066 0.000000 -0.000000 0.000000 -3.674130 1.452941 4.305860 1.678981 -3.216248 5.935473 -1.619289 -3.358830 1.648047 3.236518 -23.100185 -0.883437 4.948532 -28.279378 12.522032 -27.559449 11.666551 8.539895 -49.710729 3.538086 5.761184 -1.170605 -24.692440 26.135700 -5.463808 -5.423552 3.314826 28.613183 -3.599034 3.137161 46.214910 -3.377028 10.346658 -4.688711 30.150473 19.005232 8.419279 4.511285 11.057797 
0.684738 0.584780 0.986628 18.884247 -1.466495 88.376241 8.915764 2.739788 0.789396 -3.412095 -5.754090 5.482623 0.631015 9.273230 -7.886303 0.000000 -0.000000 0.000000 -1.714347 -3.958070 2.460171 -0.260980 5.136263 6.293175 -1.399082 -9.963360 -12.923295 0.000000 -0.000000 0.000000 -4.138042 1.429700 5.086567 1.758659 -3.378027 6.305556 -1.387676 -3.199628 1.674722 3.615157 -21.904230 -1.404603 5.378345 -27.128019 11.886639 -27.452149 11.608005 8.702737 -49.585372 4.559270 5.906203 -2.309202 -25.108798 27.723719 -5.078786 -5.358631 4.825588 28.626195 -3.171234 3.385042 45.940015 -3.546267 11.006830 -4.456468 30.253779 20.452075 9.097212 4.071735 13.426637 
0.685172 0.586254 0.986952 18.396556 -1.483881 87.954285 8.866374 2.554940 0.841967 -3.592373 -5.753851 6.546047 0.777296 9.548173 -8.155488 0.000000 -0.000000 0.000000 -1.813537 -3.796185 2.037390 -0.065459 5.665079 7.792403 -1.231260 -10.324816 -13.183072 0.000000 -0.000000 0.000000 -4.386431 1.693146 5.865452 1.801750 -3.037947 6.909803 -1.006857 -3.175921 1.985187 4.391702 -19.631797 -2.577417 5.432671 -23.853851 10.496844 -27.613825 11.455360 8.545137 -49.077115 5.733699 6.428235 -3.584000 -25.677966 29.876553 -5.769004 -5.235319 5.423727 28.390939 -3.060371 3.407190 44.945223 -3.721461 11.593314 -3.428107 30.735391 21.658807 11.194021 3.574860 15.091989 
0.685942 0.588527 0.987325 18.472149 -1.384736 87.578284 8.849965 2.492246 0.573188 -3.625806 -5.830262 7.607853 0.679328 9.912588 -8.684436 0.000000 -0.000000 0.000000 -1.962358 -3.804054 1.628277 0.439517 5.867471 9.107086 -0.953886 -10.609406 -13.626601 0.000000 -0.000000 0.000000 -4.073353 1.686315 6.800768 1.664547 -3.194296 7.337606 -0.937338 -2.974923 2.020309 4.685572 -16.195892 -3.221598 5.745571 -20.261502 9.191160 -27.768227 11.222667 8.278546 -48.574654 6.868142 6.407466 -4.889881 -25.791800 31.158494 -5.657710 -5.387890 6.312778 28.081897 -3.001721 3.391325 44.135808 -3.822272 11.679312 -3.099895 30.616050 21.779611 11.167311 3.294375 16.431022 
0.685110 0.591711 0.988202 18.468313 -1.279636 87.405889 8.871545 2.435502 0.102432 -3.784380 -5.889482 8.501585 0.459989 10.423665 -8.961190 0.000000 -0.000000 0.000000 -1.799219 -3.544367 0.737901 0.662813 5.892418 10.730018 -0.920477 -11.060516 -14.109334 0.000000 -0.000000 0.000000 -3.995834 1.714905 7.929789 1.449830 -2.895448 7.210752 -0.777972 -2.805582 2.208196 5.076803 -12.399330 -3.967400 5.604573 -16.419272 7.998165 -27.706157 11.061208 8.151183 -48.124748 7.843044 6.828936 -5.972528 -25.770113 33.010592 -4.065837 -6.097432 6.891170 27.874913 -3.145773 3.259985 43.098921 -3.818982 12.060685 -2.030599 29.801509 22.757632 7.248772 3.824442 17.268130 
0.684323 0.595465 0.988647 18.227925 -1.066453 87.565996 8.879923 2.197932 -0.594849 -3.628266 -6.094626 9.263683 0.160446 10.936538 -9.195498 0.000000 -0.000000 0.000000 -1.468743 -3.176522 -0.410871 0.749157 5.919771 11.985009 -0.776984 -11.387855 -14.440768 0.000000 -0.000000 0.000000 -3.576984 1.832647 8.703155 1.179797 -2.395432 6.831077 -0.619014 -2.825257 2.429858 4.796639 -8.528681 -4.190125 5.125367 -11.643881 6.890813 -27.635450 10.819255 8.394654 -47.852475 9.063953 7.093293 -7.410426 -25.759422 35.308176 -2.163422 -6.791586 8.151863 27.201871 -3.003133 3.777788 41.772571 -4.206222 12.320286 -1.093624 28.832117 24.445158 3.560506 5.184872 19.303582 
0.684534 0.600202 0.989270 18.244818 -0.965038 87.499291 8.754708 2.109034 -1.247834 -3.729119 -6.449930 10.198271 0.507010 11.552061 -9.428503 0.000000 -0.000000 0.000000 -1.375663 -2.965493 -1.273703 0.874448 6.119775 13.190803 -0.921020 -11.746566 -14.681665 0.000000 -0.000000 0.000000 -2.880109 1.764136 9.956920 0.637555 -1.910641 6.192540 -0.612732 -2.909833 2.636458 4.252132 -5.208717 -4.277056 4.397691 -6.682922 6.019301 -27.725536 10.597699 8.775855 -47.426839 10.786345 7.466568 -8.930705 -26.199285 37.195901 0.540527 -7.803907 8.819763 26.378030 -2.601022 4.503654 39.993675 -4.498477 12.531318 0.182046 26.201041 25.948933 -0.790503 6.675808 21.431270 
0.684059 0.605191 0.989232 18.343419 -0.802476 87.490811 8.854045 2.046578 -2.005810 -3.921380 -6.683039 11.096802 0.558890 11.870811 -9.709597 0.000000 -0.000000 0.000000 -1.112201 -2.875764 -2.234468 0.947082 6.349454 14.439746 -0.966250 -12.281933 -15.023591 0.000000 -0.000000 0.000000 -2.342812 1.567384 10.689940 0.321436 -1.516182 6.453806 -0.550956 -2.635084 2.820551 3.379676 -3.069115 -4.809588 3.515932 -3.091619 4.605517 -27.836768 10.910065 8.636778 -47.098883 12.236703 7.602399 -10.046717 -26.402911 38.850810 0.796711 -8.334678 9.625093 25.832916 -2.430214 5.090615 37.646050 -5.069693 12.019427 0.396301 23.259218 26.143571 -1.840485 7.330748 25.247088 
0.682929 0.610237 0.989263 18.568386 -0.787237 87.633261 8.718014 1.511496 -3.025164 -3.861291 -7.164943 12.149795 0.603893 12.082445 -9.663703 0.000000 -0.000000 0.000000 -1.045353 -2.696073 -3.496656 1.066670 6.455804 15.882120 -0.482578 -12.816752 -15.082766 0.000000 -0.000000 0.000000 -1.975902 1.721236 11.628525 0.058315 -0.939381 6.606763 -0.546807 -2.421407 2.808119 2.520172 -1.780555 -5.300950 2.858890 -1.160521 2.680081 -27.915094 11.696767 8.465507 -46.665617 13.510315 7.608669 -10.697945 -26.660912 40.430310 -0.642924 -8.684797 10.167045 25.534958 -3.351944 5.361983 34.935715 -5.958975 10.775340 0.365421 20.596959 25.682900 -0.761188 6.900200 27.943247 
0.680918 0.615265 0.988592 18.715666 -0.865352 87.322058 8.602446 1.188157 -3.561041 -3.983027 -7.745155 13.110232 0.422062 12.566634 -10.006333 0.000000 -0.000000 0.000000 -1.084613 -2.531700 -4.419093 1.329713 6.886508 17.692343 -0.246832 -13.308015 -15.635859 0.000000 -0.000000 0.000000 -1.608920 1.889861 12.993505 -0.335784 -0.281543 6.721815 -0.670220 -2.215991 3.087918 1.766443 -1.309985 -5.819759 2.518756 0.009469 0.869665 -27.997567 12.585540 8.293939 -46.099519 14.969777 7.501632 -11.542148 -26.887906 41.891389 -0.178491 -8.668232 10.460082 25.001662 -4.042033 5.627981 32.551205 -7.187843 9.492191 0.280115 17.942867 25.039633 -1.497324 6.815446 29.520240 
